<svg width="47" height="50" viewBox="0 0 47 50" fill="none" xmlns="http://www.w3.org/2000/svg">
<g id="Tether_Logo 1">
<g id="Group 427319002">
<path id="Vector" d="M24.1169 45.4066C35.396 45.4066 44.5394 36.2631 44.5394 24.9841C44.5394 13.705 35.396 4.56152 24.1169 4.56152C12.8378 4.56152 3.69434 13.705 3.69434 24.9841C3.69434 36.2631 12.8378 45.4066 24.1169 45.4066Z" fill="#26A17B"/>
<g id="Group">
<path id="Vector_2" d="M26.2929 26.8689V26.8656C26.1517 26.8754 25.4228 26.9181 23.8008 26.9181C22.5039 26.9181 21.5944 26.882 21.2726 26.8656V26.8689C16.2852 26.6489 12.5651 25.7821 12.5651 24.7412C12.5651 23.7037 16.2884 22.8336 21.2726 22.6136V26.0053C21.5976 26.0283 22.5334 26.0841 23.8238 26.0841C25.3735 26.0841 26.1484 26.0185 26.2929 26.0053V22.6169C31.2704 22.8402 34.9807 23.707 34.9807 24.7445C34.9807 25.7821 31.2672 26.6489 26.2929 26.8721M26.2929 22.2656V19.2317H33.2372V14.6055H14.3315V19.2317H21.2759V22.2656C15.6318 22.525 11.3896 23.6413 11.3896 24.9809C11.3896 26.3205 15.635 27.4369 21.2759 27.6995V37.4249H26.2961V27.6995C31.9304 27.4402 36.166 26.3238 36.166 24.9842C36.166 23.6479 31.9304 22.5282 26.2961 22.2689" fill="white"/>
</g>
</g>
</g>
</svg>
