<svg width="24" height="24" viewBox="0 0 24 24" fill="none" xmlns="http://www.w3.org/2000/svg">
<path d="M7.82581 5.15635H15.7409V4.35635H7.82581V5.15635ZM15.7409 5.15635C17.7291 5.15635 19.3409 6.76812 19.3409 8.75635H20.1409C20.1409 6.32629 18.171 4.35635 15.7409 4.35635V5.15635ZM19.3409 8.75635V14.0253H20.1409V8.75635H19.3409ZM21.6 12.0182C21.6 12.9303 21.2613 13.7623 20.7023 14.3968L21.3026 14.9257C21.9854 14.1506 22.4 13.1323 22.4 12.0182H21.6ZM21.6 6.52051V12.0182H22.4V6.52051H21.6ZM18 2.92051C19.9882 2.92051 21.6 4.53228 21.6 6.52051H22.4C22.4 4.09045 20.4301 2.12051 18 2.12051V2.92051ZM9.80997 2.92051H18V2.12051H9.80997V2.92051ZM7.45674 3.79603C8.08801 3.25025 8.90998 2.92051 9.80997 2.92051V2.12051C8.71065 2.12051 7.7046 2.52418 6.93351 3.19086L7.45674 3.79603ZM19.3409 14.0253C19.3409 14.5342 19.6091 14.9713 20.0002 15.1803C20.4119 15.4003 20.9313 15.3471 21.3026 14.9257L20.7023 14.3968C20.635 14.4732 20.575 14.4976 20.5326 14.5048C20.4877 14.5125 20.4346 14.5054 20.3773 14.4748C20.2596 14.4119 20.1409 14.2541 20.1409 14.0253H19.3409ZM7.82581 4.35635C7.59588 4.35635 7.43835 4.2369 7.37611 4.11936C7.34584 4.06219 7.33913 4.00938 7.34701 3.96492C7.35445 3.92294 7.37925 3.86303 7.45674 3.79603L6.93351 3.19086C6.5072 3.55945 6.45001 4.07996 6.66912 4.49374C6.87713 4.88656 7.31508 5.15635 7.82581 5.15635V4.35635Z" fill="white"/>
<path d="M9.27685 21.0947L8.96147 21.3407V21.3407L9.27685 21.0947ZM10.8463 21.1041L10.5339 20.8543L10.8463 21.1041ZM11.6948 20.043L11.3824 19.7932L11.6948 20.043ZM8.46378 20.0525L8.77916 19.8064L8.46378 20.0525ZM2.4 10.1699C2.4 8.1817 4.01178 6.56992 6 6.56992V5.76992C3.56995 5.76992 1.6 7.73987 1.6 10.1699H2.4ZM2.4 15.6676V10.1699H1.6V15.6676H2.4ZM6 19.2676C4.01177 19.2676 2.4 17.6558 2.4 15.6676H1.6C1.6 18.0977 3.56995 20.0676 6 20.0676V19.2676ZM7.67534 19.2676H6V20.0676H7.67534V19.2676ZM9.59223 20.8486L8.77916 19.8064L8.14841 20.2985L8.96147 21.3407L9.59223 20.8486ZM10.5339 20.8543C10.2918 21.157 9.83062 21.1542 9.59223 20.8486L8.96147 21.3407C9.51771 22.0537 10.5939 22.0602 11.1587 21.3539L10.5339 20.8543ZM11.3824 19.7932L10.5339 20.8543L11.1587 21.3539L12.0072 20.2929L11.3824 19.7932ZM14.19 19.2676H12.4758V20.0676H14.19V19.2676ZM17.79 15.6676C17.79 17.6558 16.1783 19.2676 14.19 19.2676V20.0676C16.6201 20.0676 18.59 18.0977 18.59 15.6676H17.79ZM17.79 10.1699V15.6676H18.59V10.1699H17.79ZM14.19 6.56992C16.1783 6.56992 17.79 8.1817 17.79 10.1699H18.59C18.59 7.73987 16.6201 5.76992 14.19 5.76992V6.56992ZM6 6.56992H14.19V5.76992H6V6.56992ZM12.0072 20.2929C12.1211 20.1505 12.2935 20.0676 12.4758 20.0676V19.2676C12.0504 19.2676 11.6481 19.461 11.3824 19.7932L12.0072 20.2929ZM7.67534 20.0676C7.86018 20.0676 8.03471 20.1528 8.14841 20.2985L8.77916 19.8064C8.51387 19.4664 8.10664 19.2676 7.67534 19.2676V20.0676Z" fill="white"/>
<circle cx="6.2869" cy="12.9187" r="1.26932" fill="white"/>
<circle cx="10.0955" cy="12.9187" r="1.26932" fill="white"/>
<circle cx="13.9031" cy="12.9187" r="1.26932" fill="white"/>
</svg>
