<svg width="32" height="33" viewBox="0 0 32 33" fill="none" xmlns="http://www.w3.org/2000/svg">
<g id="Time_fill">
<path id="Subtract" fill-rule="evenodd" clip-rule="evenodd" d="M16 28.4795C22.6274 28.4795 28 23.1069 28 16.4795C28 9.85208 22.6274 4.47949 16 4.47949C9.37258 4.47949 4 9.85208 4 16.4795C4 23.1069 9.37258 28.4795 16 28.4795ZM16.75 9.14616C16.75 8.73195 16.4142 8.39616 16 8.39616C15.5858 8.39616 15.25 8.73195 15.25 9.14616V16.2295C15.25 16.7818 15.6977 17.2295 16.25 17.2295H20.6667C21.0809 17.2295 21.4167 16.8937 21.4167 16.4795C21.4167 16.0653 21.0809 15.7295 20.6667 15.7295H16.75V9.14616Z" fill="#A7A7A7"/>
</g>
</svg>
