<svg width="20" height="21" viewBox="0 0 20 21" fill="none" xmlns="http://www.w3.org/2000/svg">
<path d="M12.9833 10.0043C12.9833 11.6543 11.6499 12.9877 9.99993 12.9877C8.34993 12.9877 7.0166 11.6543 7.0166 10.0043C7.0166 8.35433 8.34993 7.021 9.99993 7.021C11.6499 7.021 12.9833 8.35433 12.9833 10.0043Z" stroke="#A7A7A7" stroke-linecap="round" stroke-linejoin="round"/>
<path d="M9.99987 16.8962C12.9415 16.8962 15.6832 15.1628 17.5915 12.1628C18.3415 10.9878 18.3415 9.01283 17.5915 7.83783C15.6832 4.83783 12.9415 3.10449 9.99987 3.10449C7.0582 3.10449 4.31654 4.83783 2.4082 7.83783C1.6582 9.01283 1.6582 10.9878 2.4082 12.1628C4.31654 15.1628 7.0582 16.8962 9.99987 16.8962Z" stroke="#A7A7A7" stroke-linecap="round" stroke-linejoin="round"/>
</svg>
