<svg width="15" height="24" viewBox="0 0 15 24" fill="none" xmlns="http://www.w3.org/2000/svg">
<path id="Union" fill-rule="evenodd" clip-rule="evenodd" d="M11.8751 1H3.59961C2.49504 1 1.59961 1.89543 1.59961 3V3.56714H13.8751V3C13.8751 1.89543 12.9797 1 11.8751 1ZM1.59961 19.2886V4.56714H13.8751V19.2886H1.59961ZM1.59961 20.2886V21C1.59961 22.1046 2.49504 23 3.59961 23H11.8751C12.9797 23 13.8751 22.1046 13.8751 21V20.2886H1.59961ZM3.59961 0C1.94276 0 0.599609 1.34315 0.599609 3V21C0.599609 22.6569 1.94276 24 3.59961 24H11.8751C13.532 24 14.8751 22.6569 14.8751 21V3C14.8751 1.34315 13.532 0 11.8751 0H3.59961ZM8.4873 21.77C8.4873 22.1842 8.15152 22.52 7.7373 22.52C7.32309 22.52 6.9873 22.1842 6.9873 21.77C6.9873 21.3558 7.32309 21.02 7.7373 21.02C8.15152 21.02 8.4873 21.3558 8.4873 21.77ZM5.99161 1.76404C5.71619 1.76404 5.49292 1.98731 5.49292 2.26272C5.49292 2.53814 5.71619 2.76141 5.99161 2.76141H9.4824C9.75781 2.76141 9.98108 2.53814 9.98108 2.26272C9.98108 1.98731 9.75781 1.76404 9.4824 1.76404H5.99161Z" fill="#5063C0"/>
</svg>
