<svg width="20" height="20" viewBox="0 0 20 20" fill="none" xmlns="http://www.w3.org/2000/svg">
<g id="Group 427318986">
<rect id="Rectangle 34624116" x="0.4" y="5.60923" width="19.2" height="13.5659" rx="3.6" stroke="#5063C0" stroke-width="0.8"/>
<path id="Rectangle 34624117" d="M13.733 12.4916C13.733 11.1017 14.8598 9.97495 16.2497 9.97495H19.5997V15.0083H16.2497C14.8598 15.0083 13.733 13.8815 13.733 12.4916Z" stroke="#5063C0" stroke-width="0.8"/>
<path id="Vector 662" d="M9.79395 5.57015L13.8356 3.45142" stroke="#5063C0" stroke-width="0.8" stroke-linecap="round"/>
<circle id="Ellipse 986" cx="16.2496" cy="12.4918" r="0.849593" stroke="#5063C0" stroke-width="0.8"/>
<path id="Subtract" fill-rule="evenodd" clip-rule="evenodd" d="M3.66872 5.76816L11.8324 1.58321C13.9618 0.491602 16.4921 2.03794 16.4921 4.43084V5.76816H17.2921V4.43084C17.2921 1.43971 14.1292 -0.493208 11.4674 0.871298L1.91504 5.76816H3.66872ZM7.30198 19.5747L14.2921 19.5748C14.2992 19.5748 14.3064 19.5748 14.3135 19.5747H7.30198Z" fill="#5063C0"/>
</g>
</svg>
