<svg width="20" height="21" viewBox="0 0 20 21" fill="none" xmlns="http://www.w3.org/2000/svg">
<path d="M5 8.33756V6.6709C5 3.91257 5.83333 1.6709 10 1.6709C14.1667 1.6709 15 3.91257 15 6.6709V8.33756" stroke="#A7A7A7" stroke-linecap="round" stroke-linejoin="round"/>
<path d="M10.0003 15.4211C11.1509 15.4211 12.0837 14.4883 12.0837 13.3377C12.0837 12.1871 11.1509 11.2544 10.0003 11.2544C8.84973 11.2544 7.91699 12.1871 7.91699 13.3377C7.91699 14.4883 8.84973 15.4211 10.0003 15.4211Z" stroke="#A7A7A7" stroke-linecap="round" stroke-linejoin="round"/>
<path d="M14.167 18.3379H5.83366C2.50033 18.3379 1.66699 17.5046 1.66699 14.1712V12.5046C1.66699 9.17122 2.50033 8.33789 5.83366 8.33789H14.167C17.5003 8.33789 18.3337 9.17122 18.3337 12.5046V14.1712C18.3337 17.5046 17.5003 18.3379 14.167 18.3379Z" stroke="#A7A7A7" stroke-linecap="round" stroke-linejoin="round"/>
</svg>
