<svg width="20" height="21" viewBox="0 0 20 21" fill="none" xmlns="http://www.w3.org/2000/svg">
<g id="Search">
<path id="Vector" d="M17.9375 18.8545C17.8208 18.9694 17.6637 19.0339 17.5 19.0342C17.334 19.0335 17.1747 18.9692 17.0547 18.8545L13.6797 15.4717C12.2583 16.6656 10.4308 17.2647 8.57844 17.1439C6.72607 17.0232 4.99182 16.192 3.73738 14.8237C2.48294 13.4554 1.80518 11.6557 1.84545 9.79981C1.88571 7.94395 2.6409 6.17528 3.9535 4.86268C5.2661 3.55008 7.03477 2.79489 8.89063 2.75463C10.7465 2.71436 12.5463 3.39212 13.9146 4.64656C15.2828 5.901 16.114 7.63525 16.2348 9.48762C16.3555 11.34 15.7564 13.1674 14.5625 14.5889L17.9375 17.9639C17.9966 18.022 18.0434 18.0913 18.0755 18.1678C18.1075 18.2442 18.124 18.3263 18.124 18.4092C18.124 18.4921 18.1075 18.5741 18.0755 18.6506C18.0434 18.727 17.9966 18.7963 17.9375 18.8545ZM9.0625 15.9092C10.2368 15.9092 11.3848 15.5609 12.3612 14.9085C13.3376 14.2561 14.0986 13.3288 14.548 12.2439C14.9974 11.1589 15.115 9.96509 14.8859 8.81333C14.6568 7.66157 14.0913 6.60361 13.2609 5.77323C12.4306 4.94286 11.3726 4.37737 10.2208 4.14827C9.06909 3.91917 7.87525 4.03675 6.79032 4.48614C5.70538 4.93554 4.77807 5.69656 4.12565 6.67298C3.47323 7.6494 3.125 8.79735 3.125 9.97168C3.12707 11.5458 3.75329 13.0548 4.86634 14.1678C5.97938 15.2809 7.48841 15.9071 9.0625 15.9092Z" fill="#A7A7A7"/>
</g>
</svg>
