<svg width="128" height="129" viewBox="0 0 128 129" fill="none" xmlns="http://www.w3.org/2000/svg">
<g id="vuesax/bold/shield-tick">
<path id="Vector" d="M98.8803 22.465L69.5469 11.4783C66.5069 10.3583 61.5469 10.3583 58.5069 11.4783L29.1736 22.465C23.5203 24.5983 18.9336 31.2116 18.9336 37.2383V80.4383C18.9336 84.7583 21.7603 90.465 25.2269 93.025L54.5603 114.945C59.7336 118.838 68.2136 118.838 73.3869 114.945L102.72 93.025C106.187 90.4116 109.014 84.7583 109.014 80.4383V37.2383C109.067 31.2116 104.48 24.5983 98.8803 22.465ZM82.5603 52.3316L59.6269 75.265C58.8269 76.065 57.8136 76.4383 56.8003 76.4383C55.7869 76.4383 54.7736 76.065 53.9736 75.265L45.4403 66.625C43.8936 65.0783 43.8936 62.5183 45.4403 60.9716C46.9869 59.425 49.5469 59.425 51.0936 60.9716L56.8536 66.7316L76.9603 46.625C78.5069 45.0783 81.0669 45.0783 82.6136 46.625C84.1603 48.1716 84.1603 50.785 82.5603 52.3316Z" fill="#EFEFEF"/>
</g>
</svg>
